<svg id="icons" enable-background="new 0 0 64 64" height="512" viewBox="0 0 64 64" width="512" xmlns="http://www.w3.org/2000/svg"><path d="m53.51 61v2h-6v-2l.99-1 1 1 1-1 1 1 1-1z" fill="#e6e9ed"/><path d="m53.51 56v5l-1.01-1-1 1-1-1-1 1-1-1-.99 1v-5l.99-1 1 1 1-1 1 1 1-1z" fill="#656d78"/><path d="m47.51 39h6v.01 16.99l-1.01-1-1 1-1-1-1 1-1-1-.99 1v-16.99z" fill="#5d9cec"/><path d="m54.5 35.01v3.99h-.99-6-1.01v-3.99h1.01 3 3z" fill="#e6e9ed"/><path d="m50.51 35.01c0-3.319-2.689-6-6-6-3.32 0-6 2.681-6 6h-3c0-4.97 4.021-9 9-9 4.97 0 9 4.03 9 9z" fill="#5d9cec"/><path d="m44.51 29.01c3.311 0 6 2.681 6 6h-3c0-1.66-1.35-3.01-3-3.01-1.66 0-3.01 1.35-3.01 3.01h-2.99c0-3.32 2.679-6 6-6z" fill="#5d9cec"/><path d="m42.5 35.01v3.99h-.99-3-3-1-.01v-3.99h1.01 3 2.99z" fill="#e6e9ed"/><path d="m29.5 39.01c.01 1.66 1.35 3 3.01 3 1.65 0 3-1.35 3-3.01h3 3c0 4.97-4.03 9-9 9-4.979 0-8.99-4.02-9-8.99v-.01-19.98h2.99 3.01v19.99z" fill="#5d9cec"/><path d="m41.51 4.01v8.01c0 3.87-3.13 7-7 7h-5-3.01-2.99-5.01-.01c-3.87 0-6.99-3.13-6.99-6.989v-8.021z" fill="#e6e9ed"/><path d="m42 1c.83 0 1.5.67 1.5 1.5s-.67 1.51-1.5 1.51h-.49-30.01-.5c-.83 0-1.5-.68-1.5-1.51s.67-1.5 1.5-1.5z" fill="#f5f7fa"/><path d="m18.487 20.016c-4.404 0-7.988-3.584-7.988-7.988 0-.553.447-1 1-1s1 .447 1 1c0 3.302 2.687 5.988 5.988 5.988.553 0 1 .447 1 1s-.447 1-1 1z"/><path d="m34.515 20.016c-.553 0-1-.447-1-1s.447-1 1-1c3.309 0 6-2.691 6-6 0-.553.447-1 1-1s1 .447 1 1c0 4.411-3.589 8-8 8z"/><path d="m23.507 40.01c-.553 0-1-.447-1-1v-19.994c0-.553.447-1 1-1s1 .447 1 1v19.994c0 .553-.447 1-1 1z"/><path d="m29.507 40.01c-.553 0-1-.447-1-1v-19.994c0-.553.447-1 1-1s1 .447 1 1v19.994c0 .553-.447 1-1 1z"/><path d="m34.515 20.016h-16.016c-.553 0-1-.447-1-1s.447-1 1-1h16.016c.553 0 1 .447 1 1s-.448 1-1 1z"/><path d="m42.089 5.004h-31.088c-.553 0-1-.447-1-1s.447-1 1-1h31.088c.553 0 1 .447 1 1s-.447 1-1 1z"/><path d="m42.089 2h-31.088c-.553 0-1-.447-1-1s.447-1 1-1h31.088c.553 0 1 .447 1 1s-.447 1-1 1z"/><path d="m11.499 13.027c-.553 0-1-.447-1-1v-8.023c0-.553.447-1 1-1s1 .447 1 1v8.023c0 .553-.447 1-1 1z"/><path d="m41.515 13.016c-.553 0-1-.447-1-1v-8.012c0-.553.447-1 1-1s1 .447 1 1v8.012c0 .552-.448 1-1 1z"/><path d="m32.507 49c-5.514 0-10-4.486-10-10 0-.553.447-1 1-1s1 .447 1 1c0 4.411 3.589 8 8 8s8-3.589 8-8c0-.553.447-1 1-1s1 .447 1 1c0 5.514-4.486 10-10 10z"/><path d="m32.507 43.006c-2.208 0-4.005-1.797-4.005-4.006 0-.553.447-1 1-1s1 .447 1 1c0 1.106.899 2.006 2.005 2.006s2.005-.899 2.005-2.006c0-.553.447-1 1-1s1 .447 1 1c0 2.209-1.797 4.006-4.005 4.006z"/><path d="m32.509 46.006c-3.862 0-7.004-3.142-7.004-7.004 0-.553.447-1 1-1s1 .447 1 1c0 2.759 2.245 5.004 5.004 5.004s5.004-2.245 5.004-5.004c0-.553.447-1 1-1s1 .447 1 1c0 3.862-3.142 7.004-7.004 7.004z"/><path d="m53.507 36.004c-.553 0-1-.447-1-1 0-4.411-3.589-8-8-8s-8 3.589-8 8c0 .553-.447 1-1 1s-1-.447-1-1c0-5.514 4.486-10 10-10s10 4.486 10 10c0 .553-.447 1-1 1z"/><path d="m50.507 36.004c-.553 0-1-.447-1-1 0-2.757-2.243-5-5-5s-5 2.243-5 5c0 .553-.447 1-1 1s-1-.447-1-1c0-3.859 3.141-7 7-7s7 3.141 7 7c0 .553-.447 1-1 1z"/><path d="m47.512 36.004c-.553 0-1-.447-1-1 0-1.104-.899-2.004-2.005-2.004s-2.005.899-2.005 2.004c0 .553-.447 1-1 1s-1-.447-1-1c0-2.208 1.797-4.004 4.005-4.004s4.005 1.796 4.005 4.004c0 .553-.448 1-1 1z"/><path d="m53.507 64c-.553 0-1-.447-1-1v-23.992c0-.553.447-1 1-1s1 .447 1 1v23.992c0 .553-.447 1-1 1z"/><path d="m47.512 64c-.553 0-1-.447-1-1v-23.992c0-.553.447-1 1-1s1 .447 1 1v23.992c0 .553-.448 1-1 1z"/><path d="m42.503 36.004h-7.997c-.553 0-1-.447-1-1s.447-1 1-1h7.997c.553 0 1 .447 1 1s-.447 1-1 1z"/><path d="m42.508 40h-7.997c-.553 0-1-.447-1-1s.447-1 1-1h7.997c.553 0 1 .447 1 1s-.447 1-1 1z"/><path d="m42.503 40c-.553 0-1-.447-1-1v-3.996c0-.553.447-1 1-1s1 .447 1 1v3.996c0 .553-.447 1-1 1z"/><path d="m34.506 40c-.553 0-1-.447-1-1v-3.996c0-.553.447-1 1-1s1 .447 1 1v3.996c0 .553-.447 1-1 1z"/><path d="m54.497 36.004h-7.997c-.553 0-1-.447-1-1s.447-1 1-1h7.997c.553 0 1 .447 1 1s-.447 1-1 1z"/><path d="m54.502 40h-7.997c-.553 0-1-.447-1-1s.447-1 1-1h7.997c.553 0 1 .447 1 1s-.447 1-1 1z"/><path d="m54.497 40c-.553 0-1-.447-1-1v-3.996c0-.553.447-1 1-1s1 .447 1 1v3.996c0 .553-.447 1-1 1z"/><path d="m46.5 40c-.553 0-1-.447-1-1v-3.996c0-.553.447-1 1-1s1 .447 1 1v3.996c0 .553-.447 1-1 1z"/><path d="m26.501 34.006c-.553 0-1-.447-1-1v-13.99c0-.553.447-1 1-1s1 .447 1 1v13.99c0 .553-.447 1-1 1z"/><path d="m47.512 57c-.254 0-.508-.096-.703-.289-.393-.388-.396-1.021-.008-1.414l.988-1c.187-.189.441-.296.708-.297h.003c.265 0 .52.105.707.293l.294.293.293-.293c.187-.188.441-.293.707-.293.266 0 .52.105.707.293l.292.292.293-.292c.391-.39 1.021-.391 1.412-.003l1.007 1c.392.39.394 1.022.005 1.415-.391.392-1.022.394-1.415.005l-.3-.298-.295.295c-.187.188-.441.293-.707.293-.266 0-.52-.105-.707-.293l-.292-.292-.293.292c-.391.391-1.023.391-1.414 0l-.289-.289-.282.285c-.196.197-.453.297-.711.297z"/><path d="m47.512 62c-.254 0-.508-.096-.703-.289-.393-.388-.396-1.021-.008-1.414l.988-1c.187-.189.441-.296.708-.297h.003c.265 0 .52.105.707.293l.294.293.293-.293c.187-.188.441-.293.707-.293.266 0 .52.105.707.293l.292.292.293-.292c.391-.39 1.021-.391 1.412-.003l1.007 1c.392.39.394 1.022.005 1.415-.391.392-1.022.394-1.415.005l-.3-.298-.295.295c-.187.188-.441.293-.707.293-.266 0-.52-.105-.707-.293l-.292-.292-.293.292c-.391.391-1.023.391-1.414 0l-.289-.289-.282.285c-.196.197-.453.297-.711.297z"/><path d="m50.531 59c-.553 0-1.005-.447-1.005-1s.442-1 .994-1h.011c.552 0 1 .447 1 1s-.448 1-1 1z"/><path d="m52.531 59c-.553 0-1.005-.447-1.005-1s.442-1 .994-1h.011c.552 0 1 .447 1 1s-.448 1-1 1z"/><path d="m48.531 59.088c-.553 0-1.005-.447-1.005-1s.442-1 .994-1h.011c.552 0 1 .447 1 1s-.448 1-1 1z"/><path d="m50.509 50.002c-.553 0-1-.447-1-1v-9.992c0-.553.447-1 1-1s1 .447 1 1v9.992c0 .553-.447 1-1 1z"/><path d="m11.001 5.004c-1.38 0-2.503-1.122-2.503-2.502s1.123-2.502 2.503-2.502c.553 0 1 .447 1 1s-.447 1-1 1c-.277 0-.503.226-.503.502s.226.502.503.502c.553 0 1 .447 1 1s-.447 1-1 1z"/><path d="m42.002 5.004c-.553 0-1-.447-1-1s.447-1 1-1c.277 0 .503-.226.503-.502s-.226-.502-.503-.502c-.553 0-1-.447-1-1s.447-1 1-1c1.38 0 2.503 1.122 2.503 2.502s-1.123 2.502-2.503 2.502z"/></svg>